#Comment line ignore any data following # character 
#Hierarchical Translation and Rotation (.htr) file 
[Header]	
#Header keywords are followed by a single value 
FileType HTR		#Single word string
DataType HTRS		#Translation followed by rotation and scale data
FileVersion 1		#integer
NumSegments 29		#integer
NumFrames 4		#integer
DataFrameRate 30		#integer, data frame rate in this file
EulerRotationOrder ZYX
CalibrationUnits mm
RotationUnits Degrees
GlobalAxisofGravity Y
BoneLengthAxis Y
ScaleFactor 1.00
[SegmentNames&Hierarchy]
#CHILD	PARENT
MASTER GLOBAL
weapon MASTER
back_slider weapon
front_bottom weapon
front_middle_part1 weapon
front_middle_part2 weapon
front_middle_part3 weapon
front_middle_part4 weapon
front_top weapon
wing_bottom_left weapon
wing_bottom_right weapon
wing_top_left weapon
wing_top_right weapon
front_bottom_rumble_left front_bottom
front_bottom_rumble_right front_bottom
back_rotate_bottom_left front_middle_part3
back_rotate_bottom_right front_middle_part3
back_rotate_top_left front_middle_part3
back_rotate_top_right front_middle_part3
front_middle_part3_left front_middle_part3
front_middle_part3_right front_middle_part3
wing_bottom_left_buckets_1 wing_bottom_left
wing_bottom_left_buckets_2 wing_bottom_left
wing_bottom_left_buckets_3 wing_bottom_left
wing_bottom_right_buckets wing_bottom_right
wing_top_left_buckets wing_top_left
wing_top_left_buckets_1 wing_top_left
wing_top_left_buckets_3 wing_top_left
wing_top_right_buckets wing_top_right
[BasePosition]
#SegmentName Tx, Ty, Tz, Rx, Ry, Rz, BoneLength
MASTER 0.000000 0.000000 0.000000 -90.000000 0.000000 0.000000 10.000000 
weapon 0.000000 0.000000 0.000000 0.000000 0.000000 0.000000 10.000000 
back_slider 0.000000 0.000000 0.000000 0.000000 0.000000 0.000000 10.000000 
front_bottom 0.000000 0.000000 0.000000 0.000000 0.000000 0.000000 10.000000 
front_middle_part1 0.000000 0.000000 0.000000 0.000000 0.000000 0.000000 10.000000 
front_middle_part2 0.000000 0.000000 0.000000 0.000000 0.000000 0.000000 10.000000 
front_middle_part3 0.000000 0.000000 0.000000 0.000000 0.000000 0.000000 10.000000 
front_middle_part4 0.000000 0.000000 0.000000 0.000000 0.000000 0.000000 10.000000 
front_top 0.000000 0.000000 0.000000 0.000000 0.000000 0.000000 10.000000 
wing_bottom_left 0.000000 0.000000 0.000000 0.000000 0.000000 0.000000 10.000000 
wing_bottom_right 0.000000 0.000000 0.000000 0.000000 0.000000 0.000000 10.000000 
wing_top_left 0.000000 0.000000 0.000000 0.000000 0.000000 0.000000 10.000000 
wing_top_right 0.000000 0.000000 0.000000 0.000000 0.000000 0.000000 10.000000 
front_bottom_rumble_left 0.000000 0.000000 0.000000 0.000000 0.000000 0.000000 10.000000 
front_bottom_rumble_right 0.000000 0.000000 0.000000 0.000000 0.000000 0.000000 10.000000 
back_rotate_bottom_left 0.000000 0.000000 0.000000 0.000000 0.000000 0.000000 10.000000 
back_rotate_bottom_right 0.000000 0.000000 0.000000 0.000000 0.000000 0.000000 10.000000 
back_rotate_top_left 0.000000 0.000000 0.000000 0.000000 0.000000 0.000000 10.000000 
back_rotate_top_right 0.000000 0.000000 0.000000 0.000000 0.000000 0.000000 10.000000 
front_middle_part3_left 0.000000 0.000000 0.000000 0.000000 0.000000 0.000000 10.000000 
front_middle_part3_right 0.000000 0.000000 0.000000 0.000000 0.000000 0.000000 10.000000 
wing_bottom_left_buckets_1 0.000000 0.000000 0.000000 0.000000 0.000000 0.000000 10.000000 
wing_bottom_left_buckets_2 0.000000 0.000000 0.000000 0.000000 0.000000 0.000000 10.000000 
wing_bottom_left_buckets_3 0.000000 0.000000 0.000000 0.000000 0.000000 0.000000 10.000000 
wing_bottom_right_buckets 0.000000 0.000000 0.000000 0.000000 0.000000 0.000000 10.000000 
wing_top_left_buckets 0.000000 0.000000 0.000000 0.000000 0.000000 0.000000 10.000000 
wing_top_left_buckets_1 0.000000 0.000000 0.000000 0.000000 0.000000 0.000000 10.000000 
wing_top_left_buckets_3 0.000000 0.000000 0.000000 0.000000 0.000000 0.000000 10.000000 
wing_top_right_buckets 0.000000 0.000000 0.000000 0.000000 0.000000 0.000000 10.000000 
#Beginning of Data. Separated by tabs
#Fr	Tx	Ty	Tz	Rx	Ry	Rz	SF
[MASTER]
47 -0.000019 0.000000 0.000000 0.000000 -0.000000 0.000000 0.000019
48 -0.000019 0.000000 0.000000 0.000000 -0.000000 0.000000 0.000019
49 -0.000019 0.000000 0.000000 0.000000 -0.000000 0.000000 0.000019
50 -0.000019 0.000000 0.000000 0.000000 -0.000000 0.000000 0.000019
[weapon]
47 -0.000038 -79.014702 86.001579 0.000000 0.000000 -0.000020 116.788681
48 -0.000038 -79.014702 86.001579 0.000000 0.000000 -0.000020 116.788681
49 -0.000038 -79.014702 86.001579 0.000000 0.000000 -0.000020 116.788681
50 -0.000038 -79.014702 86.001579 0.000000 0.000000 -0.000020 116.788681
[back_slider]
47 0.000038 57.957649 -85.991821 0.000000 -0.000000 0.000000 103.699966
48 0.000038 57.957649 -85.991821 0.000000 -0.000000 0.000000 103.699966
49 0.000038 57.957649 -85.991821 0.000000 -0.000000 0.000000 103.699966
50 0.000038 57.957649 -85.991821 0.000000 -0.000000 0.000000 103.699966
[front_bottom]
47 0.000038 702.322388 -217.713913 3.783316 -0.001605 179.998291 735.293152
48 0.000038 665.472656 -215.581360 7.906190 -0.001541 179.998230 699.520691
49 0.000019 670.947998 -216.546783 7.906190 -0.001541 179.998230 705.027527
50 0.000000 676.423340 -217.512207 7.906190 -0.001541 179.998230 710.535034
[front_middle_part1]
47 0.000000 519.313477 -85.992035 179.998764 -53.793037 179.998764 526.384949
48 0.000000 519.313477 -85.992035 179.998718 -43.568382 179.998718 526.384949
49 0.000000 519.313477 -85.992035 179.998688 -35.172756 179.998688 526.384949
50 0.000000 519.313477 -85.992035 179.998657 -30.291056 179.998657 526.384949
[front_middle_part2]
47 0.000000 477.040344 -85.992035 179.914841 88.420586 179.914841 484.728912
48 0.000000 477.040344 -85.992035 179.956909 86.878265 179.956909 484.728912
49 0.000000 477.040344 -85.992035 179.975616 84.483849 179.975616 484.728912
50 0.000000 477.040344 -85.992035 179.982559 82.284897 179.982559 484.728912
[front_middle_part3]
47 0.000000 -175.936279 -85.991974 0.000000 -0.000000 0.000000 195.826950
48 0.000000 -175.936279 -85.991974 0.000000 -0.000000 0.000000 195.826950
49 0.000000 -175.936279 -85.991974 0.000000 -0.000000 0.000000 195.826950
50 0.000000 -175.936279 -85.991974 0.000000 -0.000000 0.000000 195.826950
[front_middle_part4]
47 0.000000 -443.853668 -85.992035 0.000000 -0.000000 0.000000 452.106964
48 0.000000 -443.853668 -85.992035 0.000000 -0.000000 0.000000 452.106964
49 0.000000 -443.853668 -85.992035 0.000000 -0.000000 0.000000 452.106964
50 0.000000 -443.853668 -85.992035 0.000000 -0.000000 0.000000 452.106964
[front_top]
47 0.000038 610.629883 -154.558670 -5.831761 0.001742 0.001573 629.886658
48 0.000038 542.987976 -143.412476 10.714784 0.001498 0.001807 561.607605
49 -0.000000 549.980347 -142.089310 10.714784 0.001498 0.001807 568.038513
50 -0.000038 556.972595 -140.766144 10.714784 0.001498 0.001807 574.485535
[wing_bottom_left]
47 -124.333710 235.191696 -217.766312 167.450897 54.014156 164.619370 343.796692
48 -124.333710 235.191696 -217.766312 175.694687 54.888329 174.744675 343.796692
49 -124.333710 235.191696 -217.766312 178.525665 54.987000 178.199310 343.796692
50 -124.333710 235.191696 -217.766312 179.738678 54.997532 179.683685 343.796692
[wing_bottom_right]
47 124.947586 235.191696 -217.766144 0.000000 54.999989 0.000000 344.019073
48 124.947586 235.191696 -217.766144 0.000000 54.999989 0.000000 344.019073
49 124.947586 235.191696 -217.766144 0.000000 54.999989 0.000000 344.019073
50 124.947586 235.191696 -217.766144 0.000000 54.999989 0.000000 344.019073
[wing_top_left]
47 -124.333710 235.191696 62.502743 -165.418854 -53.652504 162.103256 273.277527
48 -124.333710 235.191696 62.502743 -174.096405 -54.785664 172.787750 273.277527
49 -124.333710 235.191696 62.502743 -177.556900 -54.964275 177.015366 273.277527
50 -124.333710 235.191696 62.502743 -179.435593 -54.998108 179.308456 273.277527
[wing_top_right]
47 131.595657 235.191696 62.502682 -0.000000 -55.000015 0.000000 276.657074
48 131.595657 235.191696 62.502682 -0.000000 -55.000015 0.000000 276.657074
49 131.595657 235.191696 62.502682 -0.000000 -55.000015 0.000000 276.657074
50 131.595657 235.191696 62.502682 -0.000000 -55.000015 0.000000 276.657074
[front_bottom_rumble_left]
47 163.070297 263.743958 -16.969442 -129.881882 18.229330 75.387009 310.549133
48 163.070297 263.743958 -16.969442 -129.881882 18.229330 75.387009 310.549133
49 163.070297 263.743958 -16.969442 -129.881882 18.229330 75.387009 310.549133
50 163.070297 263.743958 -16.969442 -129.881882 18.229330 75.387009 310.549133
[front_bottom_rumble_right]
47 -163.070480 263.743835 -16.969442 -50.118145 18.229362 104.612976 310.549133
48 -163.070480 263.743835 -16.969442 -50.118145 18.229362 104.612976 310.549133
49 -163.070480 263.743835 -16.969442 -50.118145 18.229362 104.612976 310.549133
50 -163.070480 263.743835 -16.969442 -50.118145 18.229362 104.612976 310.549133
[back_rotate_bottom_left]
47 -38.067558 -195.870575 -38.097980 0.000000 -0.000000 0.000000 203.140045
48 -38.067558 -195.870575 -38.097980 0.000000 -0.000000 0.000000 203.140045
49 -38.067558 -195.870575 -38.097980 0.000000 -0.000000 0.000000 203.140045
50 -38.067558 -195.870575 -38.097980 0.000000 -0.000000 0.000000 203.140045
[back_rotate_bottom_right]
47 38.098610 -195.870575 -38.057903 0.000000 -0.000000 0.000000 203.138351
48 38.098610 -195.870575 -38.057903 0.000000 -0.000000 0.000000 203.138351
49 38.098610 -195.870575 -38.057903 0.000000 -0.000000 0.000000 203.138351
50 38.098610 -195.870575 -38.057903 0.000000 -0.000000 0.000000 203.138351
[back_rotate_top_left]
47 -38.074085 -195.870575 38.105885 0.000000 -0.000000 0.000000 203.142746
48 -38.074085 -195.870575 38.105885 0.000000 -0.000000 0.000000 203.142746
49 -38.074085 -195.870575 38.105885 0.000000 -0.000000 0.000000 203.142746
50 -38.074085 -195.870575 38.105885 0.000000 -0.000000 0.000000 203.142746
[back_rotate_top_right]
47 38.111603 -195.870575 38.079086 0.000000 -0.000000 0.000000 203.144760
48 38.111603 -195.870575 38.079086 0.000000 -0.000000 0.000000 203.144760
49 38.111603 -195.870575 38.079086 0.000000 -0.000000 0.000000 203.144760
50 38.111603 -195.870575 38.079086 0.000000 -0.000000 0.000000 203.144760
[front_middle_part3_left]
47 -90.176353 364.727203 0.462952 90.002296 -0.000000 0.002344 375.709869
48 -90.176353 364.727203 0.462952 90.001289 0.000010 -0.906914 375.709869
49 -90.176353 364.727203 0.462952 90.001396 0.000006 -0.452279 375.709869
50 -90.176353 364.727203 0.462952 90.002296 -0.000000 0.002347 375.709869
[front_middle_part3_right]
47 91.046051 364.727081 0.046265 -90.000000 0.000003 180.000000 375.919159
48 91.046051 364.727081 0.046265 -90.000000 0.000003 180.000000 375.919159
49 91.046051 364.727081 0.046265 -90.000000 0.000003 180.000000 375.919159
50 91.046051 364.727081 0.046265 -90.000000 0.000003 180.000000 375.919159
[wing_bottom_left_buckets_1]
47 -47.610477 -288.454193 -9.889640 -0.000027 0.000020 -0.000035 292.524170
48 -47.610477 -288.454193 -9.889640 -0.000027 0.000020 -0.000035 292.524170
49 -47.610477 -288.454193 -9.889640 -0.000027 0.000020 -0.000035 292.524170
50 -47.610477 -288.454193 -9.889640 -0.000027 0.000020 -0.000035 292.524170
[wing_bottom_left_buckets_2]
47 -47.610565 -358.672546 -9.889595 -0.000031 -0.000003 -0.000031 361.953827
48 -47.610565 -358.672546 -9.889595 -0.000031 -0.000003 -0.000031 361.953827
49 -47.610565 -358.672546 -9.889595 -0.000031 -0.000003 -0.000031 361.953827
50 -47.610565 -358.672546 -9.889595 -0.000031 -0.000003 -0.000031 361.953827
[wing_bottom_left_buckets_3]
47 -47.610672 -428.104828 -9.889513 -0.000027 0.000020 -0.000035 430.857635
48 -47.610672 -428.104828 -9.889513 -0.000027 0.000020 -0.000035 430.857635
49 -47.610672 -428.104828 -9.889513 -0.000027 0.000020 -0.000035 430.857635
50 -47.610672 -428.104828 -9.889513 -0.000027 0.000020 -0.000035 430.857635
[wing_bottom_right_buckets]
47 -47.962635 -358.672546 9.386807 0.000027 0.000061 -0.000035 361.986908
48 -47.962635 -358.672546 9.386807 0.000027 0.000061 -0.000035 361.986908
49 -47.962635 -358.672546 9.386807 0.000027 0.000061 -0.000035 361.986908
50 -47.962635 -358.672546 9.386807 0.000027 0.000061 -0.000035 361.986908
[wing_top_left_buckets]
47 -45.484066 -358.586609 10.598831 0.001914 14.361921 0.001914 361.615112
48 -45.484066 -358.586609 10.598831 0.001833 10.386962 0.001833 361.615112
49 -45.484066 -358.586609 10.598831 0.001748 5.642005 0.001748 361.615112
50 -45.484066 -358.586609 10.598831 0.001684 1.668408 0.001684 361.615112
[wing_top_left_buckets_1]
47 -45.484005 -287.973450 10.598879 0.000027 0.000000 -0.000035 291.735931
48 -45.484005 -287.973450 10.598879 0.000027 0.000000 -0.000035 291.735931
49 -45.484005 -287.973450 10.598879 0.000027 0.000000 -0.000035 291.735931
50 -45.484005 -287.973450 10.598879 0.000027 0.000000 -0.000035 291.735931
[wing_top_left_buckets_3]
47 -45.484154 -426.601654 10.598794 0.000027 0.000000 -0.000035 429.150452
48 -45.484154 -426.601654 10.598794 0.000027 0.000000 -0.000035 429.150452
49 -45.484154 -426.601654 10.598794 0.000027 0.000000 -0.000035 429.150452
50 -45.484154 -426.601654 10.598794 0.000027 0.000000 -0.000035 429.150452
[wing_top_right_buckets]
47 -46.906902 -358.586700 -9.449236 -0.000044 -0.000038 -0.000035 361.765076
48 -46.906902 -358.586700 -9.449236 -0.000044 -0.000038 -0.000035 361.765076
49 -46.906902 -358.586700 -9.449236 -0.000044 -0.000038 -0.000035 361.765076
50 -46.906902 -358.586700 -9.449236 -0.000044 -0.000038 -0.000035 361.765076
